<svg xmlns="http://www.w3.org/2000/svg" viewBox="0 0 428.94 112.36"><defs><style>.cls-1{fill:#2d2d2d;}.cls-2{fill:#f6ba18;}.cls-3{fill:#f26327;}</style></defs><title>Asset 3</title><g id="Layer_2" data-name="Layer 2"><g id="Layer_1-2" data-name="Layer 1"><path class="cls-1" d="M132.73,49.89V81.65a7.83,7.83,0,1,1-15.65,0v-71a7.83,7.83,0,1,1,15.65,0V37.52h20.55V10.66a7.82,7.82,0,1,1,15.64,0v71a7.82,7.82,0,1,1-15.64,0V49.89Z"/><path class="cls-1" d="M179.9,50c0-16.11,2.33-26.51,21.71-26.51,14.83,0,19.85,8.29,19.85,24.88,0,5.72-.7,10.15-7.93,10.15H194.84V65c0,7.58.59,13.54,6.42,13.54,3,0,5.38-3.15,5.49-6.54.24-6.19,3-7.59,7-7.59,4.2,0,7.24,1.4,7.24,7,0,11.44-7.83,18.33-19.39,18.33-19.38,0-21.71-10.39-21.71-26.51Zm27.32-1.52V43.24c0-4.79-1.52-8.53-6.19-8.53s-6.19,3.74-6.19,8.53v5.25Z"/><path class="cls-1" d="M232.09,11.13c0-5.84,2.8-8.53,7.12-8.53s7.12,2.69,7.12,8.53V81.19c0,5.83-2.8,8.52-7.12,8.52s-7.12-2.69-7.12-8.52Z"/><path class="cls-1" d="M260.11,32c0-5.84,2.8-8.53,7.12-8.53s7.12,2.69,7.12,8.53h.24A14.12,14.12,0,0,1,287.2,23.5c12.84,0,15.18,11.68,15.18,24.64V65.07c0,13-2.34,24.64-15.18,24.64-5.37,0-10-2.33-12.61-7.12h-.24v21.25c0,5.84-2.8,8.52-7.12,8.52s-7.12-2.68-7.12-8.52Zm14.24,31.06c0,9,1.52,15.41,7.13,15.41,5.25,0,5.95-6.07,5.95-16.58V53.05c0-13.9-1.28-17.75-6.07-17.75-3.39,0-7,2.57-7,15.29Z"/><path class="cls-1" d="M321.29,2.13a8.18,8.18,0,1,1-8.17,8.18A8.13,8.13,0,0,1,321.29,2.13ZM314.17,32c0-5.84,2.8-8.53,7.12-8.53s7.12,2.69,7.12,8.53V81.19c0,5.83-2.8,8.52-7.12,8.52s-7.12-2.69-7.12-8.52Z"/><path class="cls-1" d="M339.74,50c0-16.11,2.33-26.51,21.71-26.51,14.83,0,19.85,8.29,19.85,24.88,0,5.72-.7,10.15-7.94,10.15H354.68V65c0,7.58.59,13.54,6.42,13.54,3,0,5.38-3.15,5.49-6.54.24-6.19,3-7.59,7-7.59,4.2,0,7.24,1.4,7.24,7,0,11.44-7.82,18.33-19.39,18.33-19.38,0-21.71-10.39-21.71-26.51Zm27.32-1.52V43.24c0-4.79-1.52-8.53-6.19-8.53s-6.19,3.74-6.19,8.53v5.25Z"/><path class="cls-1" d="M398.82,57.25c-8.18-6.07-9.58-10-9.58-16.7,0-11.44,8.06-17,19.5-17,15.18,0,19.15,10.4,19.15,15.53,0,4.21-1.75,7-7.47,7-3.86,0-5.61-2-5.84-5.49-.24-4.32-2.57-6.42-6.19-6.42a4.59,4.59,0,0,0-4.9,4.9,7.36,7.36,0,0,0,3.15,6.08l8.76,6.65c8.87,6.66,13.54,10.86,13.54,19.38,0,12.38-9,18.57-20.67,18.57-15.29,0-19.61-10-19.61-17.4,0-5.37,3.38-7.12,6.77-7.12,5.25,0,7,2.8,7.47,8.76.24,2.68,1.75,5.13,6.19,5.13,3.74,0,5.61-2.1,5.61-5.83,0-3.16-1.05-4.91-5-7.94Z"/><path class="cls-2" d="M35,26.12,18.17,11.52A50.47,50.47,0,0,0,5.35,27.61l16.23,14Z"/><path class="cls-2" d="M100.3,50.15A50.16,50.16,0,0,0,32.48,3.21L74.93,40A7.83,7.83,0,1,1,64.69,51.79L44.38,34.22,30.93,49.75,51.24,67.33A7.83,7.83,0,1,1,41,79.16L.39,44a50.14,50.14,0,1,0,99.91,6.15Z"/><path class="cls-3" d="M52.21,78.52a7.74,7.74,0,0,0-1-11.19L30.93,49.75,44.38,34.22,64.69,51.79A7.83,7.83,0,1,0,74.93,40L32.48,3.21a50.21,50.21,0,0,0-14.31,8.31L35,26.12,21.58,41.65l-16.23-14A49.72,49.72,0,0,0,.39,44L41,79.16A7.73,7.73,0,0,0,52.21,78.52Z"/></g></g></svg>